<svg xmlns="http://www.w3.org/2000/svg" width="1000" height="303" viewBox="0 0 1000 303">
<g>
<path d="M 218.39,113.30 L 218.65,113.59 L 219.29,114.10 L 219.79,114.31 L 220.94,114.73 L 221.75,114.95 L 222.78,115.24 L 223.70,115.50 L 224.27,115.66 L 226.80,116.38 L 228.36,116.83 L 231.66,117.78 L 233.46,118.30 L 237.14,119.37 L 239.00,119.92 L 242.65,120.98 L 244.30,121.45 L 247.46,122.36 L 248.75,122.72 L 249.99,123.07 L 250.52,123.21 L 251.51,123.48 L 251.89,123.59 L 252.59,123.78 L 252.82,123.83 L 253.20,123.92 L 253.25,123.93 L 253.54,123.70 L 253.71,123.31 L 253.78,123.02 L 254.00,121.64 L 254.00,120.75 L 254.00,117.50 L 237.18,112.75 L 230.56,110.91 L 226.59,109.83 L 224.96,109.40 L 223.40,108.99 L 222.73,108.81 L 221.47,108.50 L 220.97,108.37 L 220.07,108.16 L 219.77,108.10 L 219.27,108.00 L 219.29,108.00 L 219.67,108.06 L 219.89,108.10 L 220.52,108.24 L 221.22,108.40 L 223.23,108.90 L 224.31,109.18 L 226.92,109.87 L 231.20,111.06 L 232.84,111.52 L 235.95,112.30 L 237.47,112.65 L 240.21,113.20 L 241.52,113.44 L 243.73,113.72 L 246.25,113.81 L 246.71,113.77 L 247.39,113.69 L 247.68,113.64 L 247.95,113.50 L 248.04,113.42 L 247.86,113.21 L 247.71,113.09 L 247.02,112.78 L 246.61,112.61 L 245.68,112.29 L 246.28,112.45 L 247.82,112.86 L 248.48,113.04 L 249.73,113.36 L 250.24,113.49 L 251.16,113.71 L 251.48,113.78 L 252.02,113.89 L 252.14,113.90 L 252.87,113.76 L 253.29,113.47 L 253.47,113.24 L 254.06,112.04 L 253.78,113.96 L 275.98,114.23 L 298.17,114.50 L 298.22,162.50 L 298.27,210.50 L 282.89,226.62 L 267.50,242.74 L 235.00,242.72 L 202.50,242.71 L 187.07,226.89 L 171.64,211.07 L 171.75,162.79 L 171.85,114.50 L 194.93,114.23 L 218.00,113.96 L 218.00,110.96 L 218.13,112.54 M 217.00,199.77 L 234.75,204.81 L 239.53,206.17 L 241.66,206.78 L 243.75,207.37 L 244.70,207.64 L 246.54,208.16 L 247.36,208.40 L 248.92,208.84 L 249.57,209.02 L 250.79,209.37 L 251.25,209.50 L 252.08,209.74 L 252.34,209.81 L 252.73,209.92 L 252.75,209.93 L 252.85,209.69 L 252.90,209.30 L 252.93,209.00 L 253.00,207.59 L 253.00,203.35 L 241.75,200.19 L 231.82,197.38 L 228.64,196.48 L 227.26,196.09 L 224.68,195.35 L 223.75,195.08 L 217.00,193.14 M 217.06,203.00 L 216.65,203.24 L 216.41,203.61 L 216.31,203.88 L 216.00,205.17 L 216.00,209.00 L 226.67,209.00 L 230.78,208.97 L 233.15,208.92 L 234.08,208.89 L 235.74,208.81 L 236.24,208.77 L 236.67,208.72 L 236.78,208.70 L 236.95,208.65 L 236.92,208.62 L 235.95,208.23 L 234.64,207.80 L 233.75,207.52 L 231.82,206.93 L 230.72,206.61 L 228.44,205.95 L 227.25,205.61 L 224.88,204.95 L 223.76,204.64 L 221.56,204.05 L 220.63,203.80 L 218.88,203.36 L 218.26,203.22 L 217.22,203.00 M 217.40,184.25 L 217.25,184.65 L 217.20,184.93 L 217.10,186.30 L 217.19,187.18 L 217.50,190.35 L 234.00,195.08 L 238.47,196.35 L 240.51,196.92 L 244.42,198.01 L 246.04,198.45 L 247.59,198.86 L 248.25,199.04 L 249.50,199.37 L 250.00,199.49 L 250.91,199.72 L 251.21,199.79 L 251.72,199.90 L 251.81,199.90 L 252.37,199.75 L 252.64,199.45 L 252.73,199.20 L 252.86,198.62 L 252.87,198.23 L 252.87,197.38 L 252.81,196.84 L 252.50,193.69 L 235.50,188.85 L 228.84,186.97 L 224.87,185.86 L 223.25,185.43 L 221.71,185.01 L 221.05,184.83 L 219.82,184.51 L 219.34,184.38 L 218.48,184.17 L 218.20,184.10 L 217.74,184.00 L 217.69,184.00 M 217.41,174.50 L 217.31,174.75 L 217.13,175.32 L 217.08,175.73 L 217.00,176.65 L 217.00,180.68 L 233.25,185.26 L 237.67,186.49 L 239.70,187.04 L 243.61,188.10 L 245.24,188.52 L 246.81,188.92 L 247.49,189.09 L 248.77,189.41 L 249.29,189.53 L 250.24,189.74 L 250.57,189.81 L 251.13,189.91 L 251.25,189.92 L 252.06,189.80 L 252.47,189.56 L 252.60,189.33 L 252.84,188.83 L 252.91,188.46 L 253.00,187.66 L 253.00,187.14 L 252.72,185.41 L 252.39,184.95 L 252.09,184.73 L 251.40,184.28 L 250.87,184.04 L 249.69,183.54 L 248.87,183.26 L 247.07,182.66 L 245.89,182.30 L 243.35,181.54 L 241.75,181.08 L 238.33,180.10 L 236.25,179.51 L 229.65,177.62 L 225.68,176.47 L 224.05,176.00 L 222.49,175.54 L 221.82,175.34 L 220.56,174.97 L 220.06,174.82 L 219.15,174.55 L 218.84,174.45 L 218.34,174.29 L 218.25,174.26 L 217.70,174.26 M 217.75,165.24 L 217.46,165.59 L 217.35,165.85 L 217.00,167.11 L 217.00,167.97 L 217.10,169.88 L 217.40,170.37 L 217.73,170.61 L 218.53,171.09 L 219.19,171.37 L 220.71,171.95 L 221.81,172.31 L 222.98,172.68 L 223.66,172.89 L 225.10,173.32 L 225.93,173.56 L 227.67,174.07 L 228.66,174.35 L 230.72,174.94 L 231.88,175.27 L 234.30,175.96 L 235.65,176.34 L 238.45,177.13 L 240.00,177.57 L 243.11,178.45 L 244.53,178.85 L 247.24,179.60 L 248.36,179.90 L 250.41,180.45 L 251.09,180.63 L 251.71,180.79 L 251.92,180.84 L 252.26,180.91 L 252.31,180.92 L 252.60,180.70 L 252.75,180.32 L 252.80,180.03 L 252.90,178.67 L 252.81,177.79 L 252.50,174.57 L 236.00,169.81 L 229.49,167.96 L 225.59,166.88 L 223.98,166.44 L 222.44,166.03 L 221.78,165.86 L 220.53,165.54 L 220.04,165.41 L 219.14,165.20 L 218.84,165.13 L 218.34,165.03 L 218.25,165.03 M 217.47,155.41 L 217.34,155.62 L 217.13,156.13 L 217.07,156.56 L 217.00,157.52 L 217.00,161.53 L 233.25,166.16 L 235.66,166.85 L 236.75,167.16 L 238.87,167.76 L 239.82,168.03 L 241.65,168.54 L 242.47,168.77 L 244.04,169.20 L 244.74,169.38 L 247.29,170.04 L 248.25,170.25 L 249.98,170.60 L 250.59,170.65 L 251.66,170.70 L 252.00,170.61 L 252.57,170.37 L 252.72,170.15 L 252.93,169.65 L 252.97,169.30 L 253.00,168.54 L 253.00,168.07 L 252.56,165.75 L 251.83,164.79 L 251.25,164.62 L 250.60,164.43 L 249.90,164.23 L 249.43,164.10 L 248.40,163.81 L 247.79,163.63 L 246.49,163.26 L 245.75,163.05 L 242.59,162.15 L 240.77,161.64 L 236.99,160.56 L 235.00,160.00 L 229.23,158.36 L 225.72,157.37 L 224.25,156.95 L 222.83,156.54 L 222.21,156.37 L 221.05,156.04 L 220.57,155.90 L 219.71,155.65 L 219.40,155.57 L 218.87,155.41 L 218.75,155.38 L 217.88,155.26 M 217.75,146.22 L 217.47,146.58 L 217.36,146.84 L 217.00,148.11 L 217.00,148.96 L 217.13,150.54 L 217.39,151.30 L 217.65,151.59 L 218.29,152.10 L 218.79,152.32 L 219.94,152.73 L 220.75,152.96 L 221.78,153.25 L 222.70,153.51 L 223.27,153.67 L 225.80,154.39 L 227.36,154.84 L 230.66,155.78 L 232.46,156.30 L 236.14,157.36 L 238.00,157.90 L 241.67,158.95 L 243.35,159.42 L 246.58,160.32 L 247.92,160.68 L 249.21,161.03 L 249.77,161.18 L 250.82,161.45 L 251.24,161.55 L 252.01,161.74 L 252.27,161.80 L 252.72,161.89 L 252.81,161.90 L 253.37,161.75 L 253.64,161.45 L 253.73,161.20 L 253.86,160.62 L 253.87,160.23 L 253.87,159.38 L 253.81,158.84 L 253.50,155.69 L 236.50,150.85 L 229.80,148.97 L 225.78,147.86 L 224.13,147.43 L 222.54,147.01 L 221.86,146.83 L 220.58,146.51 L 220.08,146.38 L 219.16,146.17 L 218.85,146.10 L 218.34,146.00 L 218.25,146.00 M 218.41,136.50 L 218.31,136.75 L 218.13,137.32 L 218.08,137.73 L 218.00,138.64 L 218.00,142.66 L 234.25,147.27 L 238.67,148.51 L 240.70,149.06 L 244.61,150.12 L 246.24,150.54 L 247.81,150.95 L 248.49,151.11 L 249.77,151.43 L 250.29,151.55 L 251.24,151.77 L 251.57,151.83 L 252.13,151.93 L 252.25,151.94 L 253.06,151.81 L 253.46,151.56 L 253.60,151.34 L 253.84,150.82 L 253.91,150.46 L 254.00,149.66 L 254.00,149.14 L 253.72,147.41 L 253.39,146.95 L 253.09,146.73 L 252.40,146.28 L 251.87,146.04 L 250.69,145.54 L 249.87,145.26 L 248.07,144.66 L 246.89,144.30 L 244.35,143.54 L 242.75,143.08 L 239.33,142.10 L 237.25,141.51 L 230.65,139.62 L 226.68,138.47 L 225.05,138.00 L 223.49,137.54 L 222.82,137.34 L 221.56,136.97 L 221.06,136.82 L 220.15,136.55 L 219.84,136.45 L 219.34,136.29 L 219.25,136.26 L 218.70,136.26 M 218.75,127.24 L 218.46,127.58 L 218.35,127.84 L 218.00,129.10 L 218.00,129.96 L 217.99,131.03 L 218.05,131.62 L 218.19,131.88 L 218.55,132.39 L 218.91,132.64 L 219.79,133.16 L 220.50,133.45 L 222.12,134.07 L 223.27,134.45 L 224.50,134.84 L 225.21,135.05 L 226.70,135.51 L 227.56,135.76 L 229.36,136.29 L 230.38,136.58 L 232.50,137.19 L 233.70,137.53 L 236.17,138.24 L 237.56,138.63 L 240.42,139.44 L 242.00,139.89 L 244.84,140.70 L 246.14,141.06 L 248.63,141.74 L 249.65,142.02 L 251.54,142.52 L 252.17,142.68 L 252.74,142.82 L 252.94,142.87 L 253.26,142.94 L 253.31,142.94 L 253.60,142.71 L 253.75,142.32 L 253.80,142.04 L 253.90,140.67 L 253.81,139.79 L 253.50,136.57 L 237.00,131.81 L 230.49,129.96 L 226.59,128.88 L 224.98,128.44 L 223.44,128.03 L 222.78,127.86 L 221.53,127.54 L 221.04,127.41 L 220.14,127.20 L 219.84,127.13 L 219.34,127.03 L 219.25,127.03 M 218.47,117.41 L 218.34,117.62 L 218.13,118.13 L 218.07,118.55 L 218.00,119.51 L 218.00,120.18 L 218.00,123.50 L 234.25,128.17 L 238.67,129.43 L 240.70,129.99 L 244.61,131.06 L 246.24,131.49 L 247.81,131.90 L 248.49,132.08 L 249.77,132.40 L 250.29,132.52 L 251.24,132.74 L 251.57,132.81 L 252.13,132.92 L 252.25,132.92 L 253.07,132.80 L 253.47,132.55 L 253.61,132.32 L 253.84,131.80 L 253.91,131.43 L 254.00,130.61 L 254.00,130.07 L 253.56,127.75 L 252.83,126.79 L 252.25,126.62 L 251.60,126.43 L 250.90,126.23 L 250.43,126.10 L 249.40,125.81 L 248.79,125.63 L 247.49,125.26 L 246.75,125.05 L 243.59,124.15 L 241.77,123.64 L 237.99,122.56 L 236.00,122.00 L 230.23,120.36 L 226.72,119.37 L 225.25,118.95 L 223.83,118.54 L 223.21,118.37 L 222.05,118.04 L 221.57,117.90 L 220.71,117.65 L 220.40,117.57 L 219.87,117.41 L 219.75,117.38 L 218.88,117.26 M 218.08,99.38 L 218.11,100.37 L 218.18,101.08 L 218.50,104.44 L 221.17,105.22 L 218.50,104.46 L 218.18,101.10 L 218.11,100.38 L 218.08,99.39 L 218.09,98.95 L 218.09,98.95 M 218.35,98.23 L 218.35,98.23 L 218.35,98.23 Z" fill="rgba(0,177,242,1)"/>
<path d="M 443.00,264.41 L 444.22,264.57 L 446.65,265.42 L 450.40,267.50 L 454.00,269.94 L 454.00,266.90 L 454.12,266.13 L 454.23,265.79 L 454.71,265.38 L 455.02,265.22 L 456.09,265.07 L 458.58,265.00 L 463.15,265.00 L 462.83,278.93 L 462.78,280.93 L 462.65,284.29 L 462.58,285.88 L 462.37,288.52 L 462.25,289.77 L 461.89,291.82 L 461.69,292.78 L 461.15,294.35 L 460.85,295.10 L 460.06,296.33 L 459.63,296.91 L 458.56,297.93 L 457.98,298.42 L 456.55,299.34 L 453.98,300.75 L 452.77,301.37 L 449.81,302.22 L 448.28,302.58 L 444.95,302.90 L 443.28,302.99 L 439.98,302.77 L 438.37,302.58 L 435.50,301.79 L 434.39,301.40 L 432.77,300.66 L 432.05,300.28 L 431.09,299.45 L 430.68,299.01 L 430.24,297.93 L 430.00,295.88 L 430.00,295.04 L 430.03,293.97 L 430.08,293.54 L 430.46,293.21 L 430.71,293.13 L 431.73,293.43 L 432.05,293.55 L 432.84,293.87 L 434.35,294.50 L 434.88,294.72 L 436.16,295.09 L 436.83,295.27 L 438.31,295.53 L 439.81,295.77 L 442.99,295.92 L 444.55,295.94 L 447.29,295.66 L 447.92,295.56 L 448.95,295.27 L 450.09,294.72 L 450.58,294.34 L 451.53,293.25 L 451.99,292.67 L 452.79,291.35 L 453.15,290.67 L 453.67,289.33 L 454.00,287.52 L 454.00,287.19 L 453.83,286.81 L 453.70,286.67 L 453.18,286.70 L 452.86,286.77 L 451.86,287.23 L 449.66,288.46 L 448.35,289.23 L 445.68,290.21 L 444.34,290.61 L 441.70,290.91 L 440.39,290.98 L 437.89,290.64 L 436.66,290.40 L 434.41,289.48 L 433.32,288.96 L 431.41,287.51 L 430.52,286.73 L 429.07,284.80 L 428.42,283.79 L 427.55,281.44 L 427.01,277.50 L 427.01,276.07 L 427.55,273.50 L 427.91,272.27 L 429.15,270.13 L 429.86,269.12 L 431.77,267.44 L 435.37,265.50 L 436.73,264.98 L 439.29,264.44 L 440.56,264.26 M 561.06,275.03 L 561.65,276.41 L 562.78,278.86 L 563.33,280.02 L 564.31,281.88 L 564.77,282.72 L 565.47,283.79 L 565.62,284.00 L 565.86,284.23 L 566.10,284.28 L 566.21,284.17 L 566.70,283.27 L 566.99,282.72 L 567.78,281.08 L 568.19,280.20 L 569.17,278.06 L 570.73,274.50 L 574.60,265.50 L 579.30,265.20 L 580.59,265.11 L 582.62,265.17 L 583.05,265.20 L 583.63,265.32 L 584.00,265.55 L 584.00,265.59 L 583.86,265.99 L 583.76,266.23 L 583.44,267.00 L 583.26,267.42 L 582.79,268.51 L 582.53,269.09 L 581.93,270.46 L 581.29,271.89 L 579.68,275.42 L 576.94,281.35 L 575.87,283.63 L 573.99,287.53 L 573.08,289.37 L 571.44,292.44 L 570.65,293.89 L 569.19,296.23 L 568.47,297.32 L 567.11,299.03 L 566.44,299.81 L 565.10,300.97 L 564.42,301.48 L 563.03,302.18 L 562.32,302.48 L 560.79,302.80 L 558.26,302.96 L 556.95,302.95 L 554.09,302.49 L 553.41,302.35 L 552.19,302.01 L 551.62,301.83 L 550.75,301.43 L 550.24,301.15 L 549.46,300.58 L 549.11,300.28 L 548.61,299.61 L 548.39,299.27 L 548.14,298.45 L 548.00,296.99 L 548.00,296.31 L 548.06,295.40 L 548.12,295.01 L 548.39,294.64 L 548.56,294.51 L 549.15,294.56 L 550.57,295.02 L 551.55,295.40 L 553.68,295.81 L 554.74,295.96 L 556.83,295.93 L 557.84,295.87 L 559.59,295.43 L 561.54,294.31 L 561.94,293.92 L 562.42,293.36 L 562.61,293.12 L 562.66,292.76 L 562.63,292.60 L 562.23,292.32 L 561.10,291.84 L 560.74,291.71 L 559.79,290.73 L 559.29,290.13 L 558.04,288.17 L 557.70,287.62 L 556.98,286.33 L 556.60,285.64 L 555.78,284.08 L 555.36,283.27 L 554.46,281.44 L 552.99,278.39 L 552.16,276.65 L 550.66,273.44 L 549.95,271.91 L 548.76,269.34 L 548.49,268.75 L 548.03,267.73 L 547.81,267.26 L 547.47,266.50 L 547.32,266.16 L 547.12,265.69 L 547.00,265.36 L 547.00,265.31 L 547.39,265.22 L 547.63,265.18 L 548.44,265.11 L 548.88,265.07 L 549.99,265.03 L 551.89,265.00 L 556.78,265.00 M 856.37,262.75 L 856.25,263.82 L 856.04,266.69 L 855.94,268.21 L 855.79,271.68 L 855.73,273.44 L 855.65,277.08 L 855.64,282.25 L 855.77,294.00 L 850.47,294.00 L 849.09,293.92 L 848.48,293.86 L 847.71,293.53 L 847.38,293.33 L 846.96,292.61 L 846.48,290.92 L 845.80,287.83 L 843.76,290.03 L 843.19,290.64 L 841.54,291.85 L 840.66,292.43 L 838.68,293.44 L 837.68,293.91 L 835.74,294.55 L 833.28,294.91 L 832.79,294.89 L 831.18,294.60 L 830.34,294.43 L 828.64,293.97 L 827.92,293.76 L 826.57,293.14 L 825.91,292.80 L 824.70,291.96 L 823.52,291.06 L 821.66,288.69 L 820.81,287.42 L 819.69,284.44 L 819.00,279.50 L 819.00,278.06 L 819.45,275.42 L 819.75,274.14 L 820.73,271.86 L 821.29,270.77 L 822.73,268.91 L 823.50,268.04 L 825.32,266.64 L 826.28,266.01 L 828.41,265.13 L 829.50,264.75 L 831.87,264.44 L 833.07,264.36 L 835.58,264.67 L 839.44,265.87 L 840.70,266.43 L 842.86,267.78 L 843.33,268.11 L 844.05,268.74 L 844.65,269.53 L 844.78,269.87 L 845.04,270.27 L 845.18,270.44 L 845.45,270.52 L 845.58,270.52 L 845.83,270.32 L 845.96,270.18 L 846.20,269.70 L 846.42,269.17 L 846.76,267.42 L 847.00,264.00 L 847.00,262.99 L 847.05,261.30 L 847.08,260.50 L 847.20,259.19 L 847.27,258.58 L 847.49,257.61 L 847.62,257.16 L 847.98,256.47 L 848.17,256.16 L 848.70,255.72 L 848.98,255.52 L 849.70,255.27 L 850.08,255.16 L 851.03,255.06 L 852.73,255.00 L 857.23,255.00 M 635.00,275.28 L 635.08,277.49 L 635.13,278.54 L 635.32,280.34 L 635.43,281.19 L 635.77,282.60 L 635.95,283.26 L 636.44,284.33 L 636.70,284.82 L 637.37,285.58 L 637.73,285.92 L 638.59,286.40 L 639.04,286.62 L 640.12,286.86 L 642.00,287.00 L 642.69,287.00 L 643.88,286.86 L 644.45,286.76 L 645.41,286.40 L 645.87,286.19 L 646.63,285.58 L 646.99,285.24 L 647.56,284.33 L 647.83,283.84 L 648.23,282.60 L 648.42,281.94 L 648.68,280.34 L 648.79,279.49 L 648.92,277.49 L 649.00,274.00 L 649.00,265.00 L 657.73,265.00 L 658.33,276.75 L 658.41,278.37 L 658.62,281.53 L 658.72,283.07 L 658.95,285.86 L 659.06,287.17 L 659.28,289.26 L 659.34,289.72 L 659.44,290.46 L 659.58,291.25 L 659.74,291.92 L 659.87,292.81 L 659.88,293.20 L 659.55,293.63 L 659.30,293.81 L 658.28,293.95 L 655.74,294.00 L 654.68,294.00 L 653.23,293.93 L 652.60,293.86 L 651.81,293.54 L 651.47,293.33 L 651.07,292.58 L 650.61,290.80 L 649.97,287.60 L 648.35,289.90 L 647.95,290.48 L 646.53,291.68 L 645.74,292.27 L 643.88,293.33 L 642.94,293.82 L 641.09,294.52 L 638.78,294.91 L 638.43,294.89 L 636.98,294.59 L 636.19,294.41 L 634.44,293.93 L 633.60,293.69 L 631.57,292.54 L 628.94,290.44 L 628.38,289.85 L 627.61,288.72 L 627.26,288.12 L 626.83,286.47 L 626.73,286.00 L 626.59,284.84 L 626.52,284.22 L 626.41,282.71 L 626.36,281.90 L 626.28,279.94 L 626.16,276.42 L 625.83,265.00 L 635.00,265.00 M 607.08,264.80 L 608.36,264.96 L 610.67,265.54 L 611.79,265.87 L 613.76,266.78 L 614.70,267.27 L 616.32,268.51 L 617.08,269.16 L 618.34,270.71 L 618.92,271.52 L 619.81,273.37 L 620.20,274.34 L 620.70,276.48 L 621.00,280.02 L 621.00,281.20 L 620.89,282.93 L 620.80,283.73 L 620.39,285.00 L 620.13,285.62 L 619.25,286.83 L 617.23,289.01 L 616.52,289.72 L 615.04,290.94 L 614.29,291.52 L 612.74,292.48 L 611.95,292.93 L 610.31,293.62 L 609.48,293.94 L 607.75,294.38 L 606.88,294.57 L 605.06,294.75 L 604.14,294.80 L 602.24,294.72 L 601.27,294.65 L 599.27,294.31 L 598.26,294.11 L 596.17,293.51 L 595.17,293.20 L 593.38,292.45 L 592.52,292.05 L 591.00,291.12 L 590.27,290.63 L 589.02,289.53 L 588.42,288.95 L 587.44,287.68 L 586.98,287.02 L 586.27,285.58 L 585.95,284.84 L 585.51,283.23 L 585.33,282.40 L 585.17,280.63 L 585.25,277.80 L 585.35,276.75 L 585.80,274.81 L 586.07,273.88 L 586.86,272.19 L 587.30,271.38 L 588.41,269.94 L 589.00,269.25 L 590.43,268.06 L 591.18,267.51 L 592.91,266.58 L 593.81,266.16 L 595.84,265.50 L 596.89,265.21 L 599.21,264.83 L 603.00,264.58 L 604.44,264.56 M 339.64,264.35 L 340.55,264.57 L 342.32,265.32 L 343.19,265.74 L 344.86,266.83 L 345.67,267.41 L 347.16,268.77 L 347.88,269.48 L 349.13,271.05 L 349.71,271.85 L 350.66,273.56 L 351.08,274.43 L 351.65,276.21 L 352.00,278.89 L 352.00,282.00 L 338.85,282.00 L 336.23,282.04 L 335.01,282.07 L 333.05,282.19 L 332.15,282.26 L 330.83,282.45 L 330.25,282.56 L 329.55,282.86 L 329.27,283.02 L 329.16,283.42 L 329.18,283.63 L 329.64,284.16 L 329.94,284.44 L 330.95,285.09 L 333.06,286.25 L 334.09,286.77 L 336.30,287.44 L 337.42,287.71 L 339.80,287.88 L 341.01,287.90 L 343.54,287.55 L 347.50,286.47 L 348.60,286.07 L 350.40,285.45 L 350.78,285.32 L 351.34,285.13 L 351.75,285.02 L 351.78,285.01 L 351.85,285.23 L 351.88,285.37 L 351.93,285.83 L 352.00,287.81 L 352.00,288.37 L 351.84,289.27 L 351.73,289.69 L 351.29,290.40 L 351.02,290.74 L 350.21,291.36 L 348.48,292.31 L 347.23,292.90 L 344.24,293.75 L 342.69,294.11 L 339.39,294.46 L 337.74,294.58 L 334.51,294.42 L 332.94,294.27 L 330.17,293.57 L 329.16,293.24 L 327.36,292.46 L 326.49,292.05 L 324.96,291.11 L 324.23,290.61 L 322.97,289.50 L 322.38,288.92 L 321.40,287.63 L 320.95,286.97 L 320.25,285.52 L 319.93,284.77 L 319.51,283.15 L 319.33,282.32 L 319.18,280.52 L 319.26,277.65 L 319.36,276.61 L 319.64,274.98 L 319.81,274.22 L 320.32,272.96 L 320.62,272.36 L 321.47,271.22 L 323.28,269.39 L 324.15,268.58 L 326.23,267.19 L 327.31,266.54 L 329.67,265.49 L 330.86,265.02 L 333.32,264.40 L 336.93,264.01 L 337.83,264.00 M 519.61,258.09 L 520.03,258.17 L 520.53,258.53 L 520.74,258.77 L 520.92,259.59 L 521.00,261.50 L 521.00,265.00 L 533.00,265.00 L 533.00,272.00 L 521.00,272.00 L 521.00,279.36 L 521.07,281.02 L 521.12,281.80 L 521.31,283.11 L 521.42,283.72 L 521.77,284.71 L 521.96,285.17 L 522.50,285.88 L 522.79,286.20 L 523.55,286.66 L 523.96,286.87 L 524.98,287.12 L 525.52,287.23 L 526.83,287.31 L 529.15,287.29 L 529.75,287.26 L 530.72,287.23 L 531.18,287.22 L 531.91,287.22 L 532.58,287.25 L 533.35,287.50 L 533.66,287.67 L 533.91,288.34 L 534.00,289.98 L 534.00,290.78 L 533.76,292.18 L 533.69,292.48 L 533.51,292.96 L 533.19,293.38 L 532.97,293.52 L 532.21,293.76 L 531.78,293.87 L 530.69,294.06 L 529.54,294.24 L 526.70,294.42 L 525.27,294.48 L 522.49,294.40 L 521.84,294.36 L 520.69,294.23 L 520.16,294.15 L 519.31,293.95 L 518.02,293.55 L 515.98,292.35 L 515.05,291.68 L 513.71,289.84 L 513.12,288.83 L 512.41,286.25 L 512.00,281.45 L 512.00,280.47 L 511.97,278.81 L 511.95,278.02 L 511.86,276.69 L 511.81,276.06 L 511.66,275.04 L 511.57,274.56 L 511.34,273.81 L 511.09,273.11 L 510.29,272.38 L 508.56,272.00 L 507.95,272.00 L 506.80,271.81 L 505.70,271.37 L 505.43,271.09 L 505.46,270.25 L 505.55,269.81 L 506.16,268.82 L 506.52,268.34 L 507.52,267.48 L 509.22,266.64 L 509.59,266.55 L 510.30,266.12 L 510.66,265.87 L 511.34,265.15 L 511.68,264.76 L 512.31,263.77 L 513.18,262.03 L 513.54,261.16 L 514.15,259.94 L 514.46,259.40 L 515.10,258.71 L 515.44,258.43 L 516.27,258.14 L 517.93,258.00 L 518.64,258.00 M 379.72,264.47 L 380.65,264.58 L 382.45,265.07 L 383.33,265.37 L 384.98,266.24 L 385.78,266.71 L 387.19,267.95 L 388.97,270.19 L 389.39,270.88 L 390.00,272.27 L 390.27,273.01 L 390.61,274.81 L 390.76,275.80 L 390.91,278.43 L 390.94,279.15 L 390.98,280.84 L 391.00,283.75 L 391.00,294.00 L 382.19,294.00 L 381.85,284.42 L 381.80,283.08 L 381.66,280.81 L 381.59,279.73 L 381.37,277.95 L 381.25,277.12 L 380.91,275.78 L 380.73,275.15 L 380.24,274.19 L 379.98,273.75 L 379.30,273.10 L 378.94,272.81 L 378.05,272.43 L 377.57,272.27 L 376.43,272.09 L 374.38,272.00 L 373.70,272.00 L 372.50,272.17 L 371.93,272.29 L 370.93,272.72 L 370.46,272.96 L 369.65,273.66 L 369.28,274.05 L 368.65,275.05 L 368.36,275.59 L 367.90,276.90 L 367.69,277.60 L 367.39,279.26 L 367.25,280.14 L 367.09,282.16 L 367.00,285.63 L 367.00,294.00 L 358.27,294.00 L 357.71,281.75 L 357.63,280.07 L 357.43,276.82 L 357.33,275.24 L 357.11,272.44 L 356.99,271.12 L 356.77,269.09 L 356.71,268.64 L 356.60,267.95 L 356.45,267.25 L 356.29,266.72 L 356.19,266.01 L 356.19,265.70 L 356.55,265.34 L 356.80,265.19 L 357.82,265.06 L 360.30,265.00 L 361.35,265.00 L 362.79,265.08 L 363.43,265.14 L 364.24,265.44 L 364.58,265.63 L 365.01,266.30 L 365.47,267.86 L 366.10,270.71 L 369.06,267.94 L 369.81,267.25 L 371.46,266.17 L 372.31,265.68 L 374.11,265.01 L 375.02,264.72 L 376.90,264.45 L 377.84,264.36 M 406.00,294.00 L 397.00,294.00 L 397.00,255.00 L 406.00,255.00 M 421.00,265.25 L 421.00,294.00 L 412.00,294.00 L 412.00,265.07 M 803.72,264.47 L 804.65,264.58 L 806.45,265.07 L 807.33,265.37 L 808.98,266.24 L 809.78,266.71 L 811.19,267.95 L 812.97,270.19 L 813.39,270.88 L 814.00,272.27 L 814.27,273.01 L 814.61,274.81 L 814.76,275.80 L 814.91,278.43 L 814.94,279.15 L 814.98,280.84 L 815.00,283.75 L 815.00,294.00 L 806.19,294.00 L 805.85,284.42 L 805.80,283.08 L 805.66,280.81 L 805.59,279.73 L 805.37,277.95 L 805.25,277.12 L 804.91,275.78 L 804.73,275.15 L 804.24,274.19 L 803.98,273.75 L 803.30,273.10 L 802.94,272.81 L 802.05,272.43 L 801.57,272.27 L 800.43,272.09 L 798.38,272.00 L 797.70,272.00 L 796.50,272.17 L 795.93,272.29 L 794.93,272.72 L 794.46,272.96 L 793.65,273.66 L 793.28,274.05 L 792.65,275.05 L 792.36,275.59 L 791.90,276.90 L 791.69,277.60 L 791.39,279.26 L 791.25,280.14 L 791.09,282.16 L 791.00,285.63 L 791.00,294.00 L 782.27,294.00 L 781.71,281.75 L 781.63,280.07 L 781.43,276.82 L 781.33,275.24 L 781.11,272.44 L 780.99,271.12 L 780.77,269.09 L 780.71,268.64 L 780.60,267.95 L 780.45,267.25 L 780.29,266.72 L 780.19,266.01 L 780.19,265.70 L 780.55,265.34 L 780.80,265.19 L 781.82,265.06 L 784.30,265.00 L 785.35,265.00 L 786.79,265.08 L 787.43,265.14 L 788.24,265.44 L 788.58,265.63 L 789.01,266.30 L 789.47,267.86 L 790.10,270.71 L 793.06,267.94 L 793.81,267.25 L 795.46,266.17 L 796.31,265.68 L 798.11,265.01 L 799.02,264.72 L 800.90,264.45 L 801.84,264.36 M 478.00,262.96 L 478.05,264.72 L 478.08,265.55 L 478.17,266.94 L 478.23,267.58 L 478.36,268.45 L 478.59,269.00 L 478.67,269.00 L 479.02,268.84 L 479.22,268.74 L 479.75,268.42 L 481.69,267.03 L 482.41,266.47 L 483.98,265.61 L 484.79,265.22 L 486.49,264.70 L 487.35,264.49 L 489.11,264.30 L 489.99,264.25 L 491.73,264.39 L 492.60,264.50 L 494.25,264.95 L 495.06,265.22 L 496.55,265.98 L 497.27,266.39 L 498.53,267.45 L 500.07,269.35 L 500.47,270.00 L 501.04,271.37 L 501.29,272.11 L 501.63,273.96 L 501.77,274.98 L 501.92,277.72 L 501.94,278.47 L 501.98,280.22 L 502.00,283.25 L 502.00,294.00 L 493.00,294.00 L 493.00,283.68 L 492.98,282.00 L 492.97,281.21 L 492.93,279.85 L 492.88,278.56 L 492.66,276.75 L 492.52,275.95 L 492.10,274.86 L 491.17,273.65 L 490.56,273.11 L 488.95,272.44 L 488.09,272.17 L 486.20,272.07 L 485.25,272.09 L 483.39,272.55 L 480.93,273.86 L 480.42,274.27 L 479.70,275.14 L 479.38,275.62 L 478.95,276.96 L 478.85,277.34 L 478.69,278.28 L 478.62,278.78 L 478.50,279.98 L 478.44,280.62 L 478.34,282.15 L 478.19,284.86 L 477.76,294.00 L 469.00,294.00 L 469.00,255.00 L 478.00,255.00 M 689.00,268.87 L 688.93,270.20 L 688.87,270.77 L 688.55,271.43 L 688.34,271.70 L 687.58,271.92 L 685.75,272.01 L 684.68,272.02 L 682.83,272.17 L 681.95,272.28 L 680.46,272.67 L 679.76,272.90 L 678.59,273.58 L 678.04,273.95 L 677.17,274.95 L 676.76,275.50 L 676.15,276.86 L 675.87,277.59 L 675.48,279.37 L 675.31,280.31 L 675.11,282.54 L 675.00,286.45 L 675.00,294.00 L 666.24,294.00 L 665.72,281.75 L 665.64,280.07 L 665.46,276.82 L 665.36,275.24 L 665.14,272.44 L 665.03,271.12 L 664.80,269.09 L 664.74,268.64 L 664.63,267.95 L 664.48,267.25 L 664.31,266.72 L 664.20,266.01 L 664.19,265.70 L 664.54,265.34 L 664.80,265.19 L 665.81,265.06 L 668.28,265.00 L 669.45,265.00 L 671.15,265.21 L 671.91,265.37 L 672.90,266.01 L 673.32,266.40 L 673.77,267.61 L 674.00,270.25 L 674.00,270.69 L 674.12,271.19 L 674.21,271.36 L 674.59,271.28 L 674.82,271.16 L 675.58,270.44 L 677.25,268.60 L 677.88,267.87 L 679.02,266.76 L 679.58,266.26 L 680.71,265.52 L 681.28,265.19 L 682.54,264.74 L 684.75,264.30 L 689.00,263.74 M 726.04,264.33 L 727.66,264.64 L 728.47,264.83 L 729.99,265.47 L 730.74,265.83 L 732.10,266.79 L 733.90,268.60 L 735.73,270.92 L 738.05,268.44 L 738.73,267.72 L 740.27,266.57 L 741.07,266.04 L 742.78,265.28 L 743.65,264.94 L 745.46,264.56 L 746.36,264.41 L 748.18,264.40 L 749.08,264.45 L 750.82,264.81 L 751.68,265.04 L 753.27,265.78 L 754.03,266.19 L 755.39,267.29 L 757.07,269.35 L 757.47,270.00 L 758.04,271.37 L 758.29,272.11 L 758.63,273.96 L 758.77,274.98 L 758.92,277.72 L 758.94,278.47 L 758.98,280.22 L 759.00,283.25 L 759.00,294.00 L 750.00,294.00 L 750.00,283.91 L 749.93,281.63 L 749.89,280.55 L 749.71,278.71 L 749.61,277.84 L 749.31,276.41 L 749.14,275.74 L 748.69,274.66 L 748.45,274.16 L 747.83,273.41 L 747.50,273.06 L 746.70,272.58 L 746.27,272.38 L 745.27,272.14 L 743.50,272.00 L 742.85,272.00 L 741.73,272.14 L 741.20,272.23 L 740.30,272.58 L 739.87,272.79 L 739.17,273.41 L 738.84,273.75 L 738.31,274.66 L 738.06,275.16 L 737.69,276.41 L 737.52,277.08 L 737.29,278.71 L 737.18,279.58 L 737.07,281.63 L 737.00,285.22 L 737.00,294.00 L 728.28,294.00 L 727.74,285.25 L 727.67,284.05 L 727.48,281.71 L 727.38,280.58 L 727.16,278.55 L 727.04,277.60 L 726.81,276.11 L 726.49,274.74 L 726.28,274.21 L 725.36,273.36 L 724.84,272.98 L 723.46,272.46 L 722.72,272.25 L 721.06,272.12 L 718.46,272.42 L 717.62,272.63 L 716.33,273.57 L 716.04,273.86 L 715.56,274.60 L 715.33,275.00 L 714.96,275.99 L 714.79,276.52 L 714.52,277.78 L 714.39,278.45 L 714.22,280.03 L 714.14,280.86 L 714.05,282.78 L 714.00,286.07 L 714.00,294.00 L 705.27,294.00 L 704.71,281.75 L 704.63,280.07 L 704.43,276.82 L 704.33,275.24 L 704.11,272.44 L 703.99,271.12 L 703.77,269.09 L 703.71,268.64 L 703.60,267.95 L 703.45,267.25 L 703.29,266.72 L 703.19,266.01 L 703.19,265.70 L 703.55,265.34 L 703.80,265.19 L 704.82,265.06 L 707.30,265.00 L 708.35,265.00 L 709.79,265.08 L 710.43,265.14 L 711.24,265.44 L 711.59,265.64 L 712.01,266.31 L 712.47,267.87 L 713.10,270.74 L 715.90,267.95 L 716.54,267.30 L 717.97,266.28 L 718.70,265.81 L 720.27,265.12 L 721.07,264.81 L 722.71,264.46 L 723.54,264.32 L 725.21,264.30 M 774.00,265.25 L 774.00,294.00 L 765.00,294.00 L 765.00,265.07 M 835.01,271.20 L 834.10,271.45 L 833.65,271.63 L 832.71,272.28 L 831.04,273.81 L 830.20,274.64 L 828.89,276.64 L 828.62,277.13 L 828.24,278.05 L 828.00,279.20 L 828.00,280.22 L 828.73,282.25 L 829.20,283.25 L 830.67,285.01 L 831.46,285.83 L 833.39,287.04 L 836.50,287.93 L 836.64,287.94 L 837.14,287.80 L 837.42,287.71 L 838.14,287.40 L 838.90,287.06 L 840.69,286.05 L 841.62,285.48 L 843.14,284.20 L 843.83,283.55 L 844.82,282.18 L 845.24,281.49 L 845.65,280.10 L 845.54,278.12 L 845.31,277.41 L 844.35,275.97 L 843.80,275.26 L 842.35,273.95 L 841.58,273.33 L 839.87,272.34 L 837.24,271.40 L 836.58,271.27 L 835.52,271.19 M 602.45,271.25 L 601.50,271.32 L 599.76,271.80 L 598.93,272.10 L 597.49,272.98 L 596.81,273.46 L 595.72,274.64 L 595.22,275.27 L 594.55,276.68 L 594.27,277.41 L 594.08,278.98 L 594.05,279.77 L 594.40,281.41 L 595.61,283.85 L 596.32,284.86 L 598.07,286.32 L 599.00,286.95 L 601.08,287.62 L 602.15,287.86 L 604.43,287.71 L 605.58,287.53 L 607.93,286.54 L 608.77,286.10 L 610.07,284.94 L 610.66,284.33 L 611.46,282.90 L 611.79,282.17 L 612.11,280.59 L 612.21,279.80 L 612.06,278.20 L 611.93,277.41 L 611.34,275.91 L 610.99,275.18 L 609.98,273.89 L 609.42,273.29 L 608.01,272.34 L 605.45,271.43 L 604.41,271.23 M 443.46,271.00 L 441.93,271.21 L 441.20,271.35 L 439.91,271.82 L 439.30,272.08 L 438.27,272.77 L 437.80,273.14 L 437.06,274.03 L 436.73,274.49 L 436.29,275.54 L 436.12,276.08 L 436.02,277.25 L 436.01,277.85 L 436.27,279.13 L 437.07,281.12 L 437.56,282.05 L 439.00,283.39 L 439.78,283.96 L 441.67,284.56 L 442.67,284.76 L 444.89,284.59 L 446.03,284.41 L 448.45,283.45 L 449.35,283.03 L 451.14,281.64 L 451.56,281.28 L 452.26,280.52 L 453.03,279.44 L 453.33,278.88 L 453.66,278.03 L 453.78,277.62 L 453.69,276.89 L 453.58,276.52 L 453.00,275.67 L 451.49,273.99 L 450.91,273.38 L 449.88,272.50 L 449.37,272.11 L 448.34,271.59 L 447.81,271.37 L 446.58,271.13 L 444.31,271.00 M 335.79,271.00 L 334.07,271.39 L 333.21,271.64 L 331.61,272.38 L 330.86,272.77 L 329.74,273.67 L 329.00,274.98 L 329.00,275.21 L 329.45,275.62 L 329.74,275.82 L 330.66,276.15 L 331.17,276.31 L 332.42,276.55 L 333.08,276.66 L 334.52,276.81 L 335.98,276.93 L 338.85,276.82 L 339.52,276.76 L 340.67,276.54 L 341.20,276.41 L 341.96,276.05 L 342.25,275.86 L 342.55,275.41 L 342.66,275.17 L 342.64,274.64 L 342.55,274.10 L 341.59,272.97 L 341.02,272.43 L 339.38,271.58 L 336.57,271.00 M 419.50,253.57 L 420.13,253.63 L 420.89,253.93 L 421.21,254.13 L 421.54,254.82 L 421.84,256.45 L 421.92,257.23 L 421.66,258.63 L 421.46,259.29 L 420.70,260.39 L 420.26,260.89 L 419.10,261.57 L 417.00,262.00 L 416.56,262.00 L 415.34,261.62 L 414.72,261.38 L 413.61,260.70 L 413.01,260.27 L 412.36,258.99 L 412.16,256.45 L 412.24,255.76 L 412.46,254.82 L 412.59,254.41 L 413.11,253.93 L 413.43,253.74 L 414.50,253.57 L 417.00,253.50 L 418.06,253.50 M 772.50,253.57 L 773.13,253.63 L 773.89,253.93 L 774.21,254.13 L 774.54,254.82 L 774.84,256.45 L 774.92,257.23 L 774.66,258.63 L 774.46,259.29 L 773.70,260.39 L 773.26,260.89 L 772.10,261.57 L 770.00,262.00 L 769.56,262.00 L 768.34,261.62 L 767.72,261.38 L 766.61,260.70 L 766.01,260.27 L 765.36,258.99 L 765.16,256.45 L 765.24,255.76 L 765.46,254.82 L 765.59,254.41 L 766.11,253.93 L 766.43,253.74 L 767.50,253.57 L 770.00,253.50 L 771.06,253.50 M 223.75,195.08 L 224.68,195.35 L 227.26,196.09 L 228.64,196.48 L 231.82,197.38 L 241.75,200.19 L 253.00,203.35 L 253.00,207.59 L 252.93,209.00 L 252.90,209.30 L 252.85,209.69 L 252.75,209.93 L 252.73,209.92 L 252.34,209.81 L 252.08,209.74 L 251.25,209.50 L 250.79,209.37 L 249.57,209.02 L 248.92,208.84 L 247.36,208.40 L 246.54,208.16 L 244.70,207.64 L 243.75,207.37 L 241.66,206.78 L 239.53,206.17 L 234.75,204.81 L 217.00,199.77 L 217.00,193.14 M 218.26,203.22 L 218.88,203.36 L 220.63,203.80 L 221.56,204.05 L 223.76,204.64 L 224.88,204.95 L 227.25,205.61 L 228.44,205.95 L 230.72,206.61 L 231.82,206.93 L 233.75,207.52 L 234.64,207.80 L 235.95,208.23 L 236.92,208.62 L 236.95,208.65 L 236.78,208.70 L 236.67,208.72 L 236.24,208.77 L 235.74,208.81 L 234.08,208.89 L 233.15,208.92 L 230.78,208.97 L 226.67,209.00 L 216.00,209.00 L 216.00,205.17 L 216.31,203.88 L 216.41,203.61 L 216.65,203.24 L 217.06,203.00 L 217.22,203.00 M 217.74,184.00 L 218.20,184.10 L 218.48,184.17 L 219.34,184.38 L 219.82,184.51 L 221.05,184.83 L 221.71,185.01 L 223.25,185.43 L 224.87,185.86 L 228.84,186.97 L 235.50,188.85 L 252.50,193.69 L 252.81,196.84 L 252.87,197.38 L 252.87,198.23 L 252.86,198.62 L 252.73,199.20 L 252.64,199.45 L 252.37,199.75 L 251.81,199.90 L 251.72,199.90 L 251.21,199.79 L 250.91,199.72 L 250.00,199.49 L 249.50,199.37 L 248.25,199.04 L 247.59,198.86 L 246.04,198.45 L 244.42,198.01 L 240.51,196.92 L 238.47,196.35 L 234.00,195.08 L 217.50,190.35 L 217.19,187.18 L 217.10,186.30 L 217.20,184.93 L 217.25,184.65 L 217.40,184.25 L 217.69,184.00 M 218.25,174.26 L 218.34,174.29 L 218.84,174.45 L 219.15,174.55 L 220.06,174.82 L 220.56,174.97 L 221.82,175.34 L 222.49,175.54 L 224.05,176.00 L 225.68,176.47 L 229.65,177.62 L 236.25,179.51 L 238.33,180.10 L 241.75,181.08 L 243.35,181.54 L 245.89,182.30 L 247.07,182.66 L 248.87,183.26 L 249.69,183.54 L 250.87,184.04 L 251.40,184.28 L 252.09,184.73 L 252.39,184.95 L 252.72,185.41 L 253.00,187.14 L 253.00,187.66 L 252.91,188.46 L 252.84,188.83 L 252.60,189.33 L 252.47,189.56 L 252.06,189.80 L 251.25,189.92 L 251.13,189.91 L 250.57,189.81 L 250.24,189.74 L 249.29,189.53 L 248.77,189.41 L 247.49,189.09 L 246.81,188.92 L 245.24,188.52 L 243.61,188.10 L 239.70,187.04 L 237.67,186.49 L 233.25,185.26 L 217.00,180.68 L 217.00,176.65 L 217.08,175.73 L 217.13,175.32 L 217.31,174.75 L 217.41,174.50 L 217.70,174.26 M 218.34,165.03 L 218.84,165.13 L 219.14,165.20 L 220.04,165.41 L 220.53,165.54 L 221.78,165.86 L 222.44,166.03 L 223.98,166.44 L 225.59,166.88 L 229.49,167.96 L 236.00,169.81 L 252.50,174.57 L 252.81,177.79 L 252.90,178.67 L 252.80,180.03 L 252.75,180.32 L 252.60,180.70 L 252.31,180.92 L 252.26,180.91 L 251.92,180.84 L 251.71,180.79 L 251.09,180.63 L 250.41,180.45 L 248.36,179.90 L 247.24,179.60 L 244.53,178.85 L 243.11,178.45 L 240.00,177.57 L 238.45,177.13 L 235.65,176.34 L 234.30,175.96 L 231.88,175.27 L 230.72,174.94 L 228.66,174.35 L 227.67,174.07 L 225.93,173.56 L 225.10,173.32 L 223.66,172.89 L 222.98,172.68 L 221.81,172.31 L 220.71,171.95 L 219.19,171.37 L 218.53,171.09 L 217.73,170.61 L 217.40,170.37 L 217.10,169.88 L 217.00,167.97 L 217.00,167.11 L 217.35,165.85 L 217.46,165.59 L 217.75,165.24 L 218.25,165.03 M 218.75,155.38 L 218.87,155.41 L 219.40,155.57 L 219.71,155.65 L 220.57,155.90 L 221.05,156.04 L 222.21,156.37 L 222.83,156.54 L 224.25,156.95 L 225.72,157.37 L 229.23,158.36 L 235.00,160.00 L 236.99,160.56 L 240.77,161.64 L 242.59,162.15 L 245.75,163.05 L 246.49,163.26 L 247.79,163.63 L 248.40,163.81 L 249.43,164.10 L 249.90,164.23 L 250.60,164.43 L 251.25,164.62 L 251.83,164.79 L 252.56,165.75 L 253.00,168.07 L 253.00,168.54 L 252.97,169.30 L 252.93,169.65 L 252.72,170.15 L 252.57,170.37 L 252.00,170.61 L 251.66,170.70 L 250.59,170.65 L 249.98,170.60 L 248.25,170.25 L 247.29,170.04 L 244.74,169.38 L 244.04,169.20 L 242.47,168.77 L 241.65,168.54 L 239.82,168.03 L 238.87,167.76 L 236.75,167.16 L 235.66,166.85 L 233.25,166.16 L 217.00,161.53 L 217.00,157.52 L 217.07,156.56 L 217.13,156.13 L 217.34,155.62 L 217.47,155.41 L 217.88,155.26 M 218.34,146.00 L 218.85,146.10 L 219.16,146.17 L 220.08,146.38 L 220.58,146.51 L 221.86,146.83 L 222.54,147.01 L 224.13,147.43 L 225.78,147.86 L 229.80,148.97 L 236.50,150.85 L 253.50,155.69 L 253.81,158.84 L 253.87,159.38 L 253.87,160.23 L 253.86,160.62 L 253.73,161.20 L 253.64,161.45 L 253.37,161.75 L 252.81,161.90 L 252.72,161.89 L 252.27,161.80 L 252.01,161.74 L 251.24,161.55 L 250.82,161.45 L 249.77,161.18 L 249.21,161.03 L 247.92,160.68 L 246.58,160.32 L 243.35,159.42 L 241.67,158.95 L 238.00,157.90 L 236.14,157.36 L 232.46,156.30 L 230.66,155.78 L 227.36,154.84 L 225.80,154.39 L 223.27,153.67 L 222.70,153.51 L 221.78,153.25 L 220.75,152.96 L 219.94,152.73 L 218.79,152.32 L 218.29,152.10 L 217.65,151.59 L 217.39,151.30 L 217.13,150.54 L 217.00,148.96 L 217.00,148.11 L 217.36,146.84 L 217.47,146.58 L 217.75,146.22 L 218.25,146.00 M 973.79,125.34 L 973.81,125.56 L 973.84,126.30 L 973.86,126.72 L 973.88,127.83 L 973.90,128.42 L 973.92,129.85 L 973.95,131.34 L 973.98,135.09 L 974.00,141.50 L 974.00,158.00 L 940.52,158.00 L 957.00,141.50 L 959.27,139.23 L 963.42,135.09 L 964.41,134.11 L 966.24,132.29 L 967.13,131.41 L 968.71,129.85 L 969.47,129.10 L 970.77,127.83 L 971.38,127.23 L 972.34,126.30 L 972.77,125.88 L 973.35,125.34 L 973.74,125.00 L 973.76,125.00 M 973.77,76.72 L 974.04,98.45 L 944.28,128.22 L 914.51,158.00 L 870.51,158.00 L 922.00,106.50 L 973.50,54.99 M 219.25,136.26 L 219.34,136.29 L 219.84,136.45 L 220.15,136.55 L 221.06,136.82 L 221.56,136.97 L 222.82,137.34 L 223.49,137.54 L 225.05,138.00 L 226.68,138.47 L 230.65,139.62 L 237.25,141.51 L 239.33,142.10 L 242.75,143.08 L 244.35,143.54 L 246.89,144.30 L 248.07,144.66 L 249.87,145.26 L 250.69,145.54 L 251.87,146.04 L 252.40,146.28 L 253.09,146.73 L 253.39,146.95 L 253.72,147.41 L 254.00,149.14 L 254.00,149.66 L 253.91,150.46 L 253.84,150.82 L 253.60,151.34 L 253.46,151.56 L 253.06,151.81 L 252.25,151.94 L 252.13,151.93 L 251.57,151.83 L 251.24,151.77 L 250.29,151.55 L 249.77,151.43 L 248.49,151.11 L 247.81,150.95 L 246.24,150.54 L 244.61,150.12 L 240.70,149.06 L 238.67,148.51 L 234.25,147.27 L 218.00,142.66 L 218.00,138.64 L 218.08,137.73 L 218.13,137.32 L 218.31,136.75 L 218.41,136.50 L 218.70,136.26 M 951.49,6.00 L 974.00,6.00 L 974.00,17.25 L 974.00,28.51 L 916.00,86.50 L 858.00,144.49 L 858.00,114.00 L 843.51,114.00 L 897.50,60.00 M 219.34,127.03 L 219.84,127.13 L 220.14,127.20 L 221.04,127.41 L 221.53,127.54 L 222.78,127.86 L 223.44,128.03 L 224.98,128.44 L 226.59,128.88 L 230.49,129.96 L 237.00,131.81 L 253.50,136.57 L 253.81,139.79 L 253.90,140.67 L 253.80,142.04 L 253.75,142.32 L 253.60,142.71 L 253.31,142.94 L 253.26,142.94 L 252.94,142.87 L 252.74,142.82 L 252.17,142.68 L 251.54,142.52 L 249.65,142.02 L 248.63,141.74 L 246.14,141.06 L 244.84,140.70 L 242.00,139.89 L 240.42,139.44 L 237.56,138.63 L 236.17,138.24 L 233.70,137.53 L 232.50,137.19 L 230.38,136.58 L 229.36,136.29 L 227.56,135.76 L 226.70,135.51 L 225.21,135.05 L 224.50,134.84 L 223.27,134.45 L 222.12,134.07 L 220.50,133.45 L 219.79,133.16 L 218.91,132.64 L 218.55,132.39 L 218.19,131.88 L 218.05,131.62 L 217.99,131.03 L 218.00,129.96 L 218.00,129.10 L 218.35,127.84 L 218.46,127.58 L 218.75,127.24 L 219.25,127.03 M 219.75,117.38 L 219.87,117.41 L 220.40,117.57 L 220.71,117.65 L 221.57,117.90 L 222.05,118.04 L 223.21,118.37 L 223.83,118.54 L 225.25,118.95 L 226.72,119.37 L 230.23,120.36 L 236.00,122.00 L 237.99,122.56 L 241.77,123.64 L 243.59,124.15 L 246.75,125.05 L 247.49,125.26 L 248.79,125.63 L 249.40,125.81 L 250.43,126.10 L 250.90,126.23 L 251.60,126.43 L 252.25,126.62 L 252.83,126.79 L 253.56,127.75 L 254.00,130.07 L 254.00,130.61 L 253.91,131.43 L 253.84,131.80 L 253.61,132.32 L 253.47,132.55 L 253.07,132.80 L 252.25,132.92 L 252.13,132.92 L 251.57,132.81 L 251.24,132.74 L 250.29,132.52 L 249.77,132.40 L 248.49,132.08 L 247.81,131.90 L 246.24,131.49 L 244.61,131.06 L 240.70,129.99 L 238.67,129.43 L 234.25,128.17 L 218.00,123.50 L 218.00,120.18 L 218.00,119.51 L 218.07,118.55 L 218.13,118.13 L 218.34,117.62 L 218.47,117.41 L 218.88,117.26 M 219.77,108.10 L 220.07,108.16 L 220.97,108.37 L 221.47,108.50 L 222.73,108.81 L 223.40,108.99 L 224.96,109.40 L 226.59,109.83 L 230.56,110.91 L 237.18,112.75 L 254.00,117.50 L 254.00,120.75 L 254.00,121.64 L 253.78,123.02 L 253.71,123.31 L 253.54,123.70 L 253.25,123.93 L 253.20,123.92 L 252.82,123.83 L 252.59,123.78 L 251.89,123.59 L 251.51,123.48 L 250.52,123.21 L 249.99,123.07 L 248.75,122.72 L 247.46,122.36 L 244.30,121.45 L 242.65,120.98 L 239.00,119.92 L 237.14,119.37 L 233.46,118.30 L 231.66,117.78 L 228.36,116.83 L 226.80,116.38 L 224.27,115.66 L 223.70,115.50 L 222.78,115.24 L 221.75,114.95 L 220.94,114.73 L 219.79,114.31 L 219.29,114.10 L 218.65,113.59 L 218.39,113.30 L 218.13,112.54 L 218.00,110.96 L 218.00,110.15 L 218.35,108.87 L 218.46,108.60 L 218.73,108.23 L 219.19,108.00 L 219.27,108.00 M 219.68,98.22 L 219.80,98.25 L 220.38,98.41 L 220.72,98.51 L 221.69,98.78 L 222.22,98.93 L 223.53,99.30 L 224.23,99.50 L 225.83,99.95 L 227.50,100.43 L 231.49,101.56 L 238.06,103.44 L 254.63,108.17 L 254.20,111.09 L 254.06,112.04 L 253.47,113.24 L 253.29,113.47 L 252.87,113.76 L 252.14,113.90 L 252.02,113.89 L 251.48,113.78 L 251.16,113.71 L 250.24,113.49 L 249.73,113.36 L 248.48,113.04 L 247.82,112.86 L 246.28,112.45 L 244.68,112.02 L 240.84,110.94 L 238.85,110.38 L 234.50,109.12 L 218.50,104.44 L 218.18,101.08 L 218.11,100.37 L 218.08,99.38 L 218.09,98.95 L 218.25,98.43 L 218.35,98.23 L 218.75,98.09 M 903.28,6.23 L 925.01,6.50 L 822.00,109.49 L 822.00,65.49 L 851.78,35.72 L 881.55,5.96 M 221.22,89.59 L 221.69,89.64 L 222.91,89.86 L 223.57,89.99 L 225.24,90.37 L 226.14,90.59 L 228.32,91.15 L 229.49,91.46 L 232.26,92.23 L 237.16,93.61 L 254.50,98.56 L 254.81,101.78 L 254.87,102.33 L 254.87,103.20 L 254.86,103.60 L 254.73,104.19 L 254.65,104.44 L 254.38,104.75 L 253.81,104.90 L 253.72,104.89 L 253.20,104.77 L 252.88,104.70 L 251.94,104.46 L 251.43,104.33 L 250.12,103.98 L 249.43,103.79 L 247.82,103.34 L 246.14,102.88 L 242.05,101.72 L 239.92,101.11 L 235.25,99.75 L 233.05,99.11 L 229.39,98.02 L 227.68,97.50 L 224.92,96.61 L 223.65,96.19 L 221.70,95.45 L 220.82,95.09 L 219.57,94.43 L 219.02,94.11 L 218.38,93.48 L 218.12,93.16 L 217.97,92.49 L 217.95,92.15 L 218.21,91.39 L 218.93,90.08 L 219.02,89.93 L 219.33,89.73 L 219.52,89.64 L 220.06,89.55 L 220.37,89.53 M 220.75,79.38 L 220.87,79.41 L 221.40,79.57 L 221.71,79.65 L 222.57,79.90 L 223.05,80.04 L 224.21,80.37 L 224.83,80.54 L 226.25,80.95 L 227.72,81.37 L 231.23,82.36 L 237.00,84.00 L 238.99,84.56 L 242.77,85.64 L 244.59,86.15 L 247.75,87.05 L 248.49,87.26 L 249.79,87.63 L 250.40,87.81 L 251.43,88.10 L 251.90,88.23 L 252.60,88.43 L 253.25,88.62 L 253.83,88.79 L 254.56,89.75 L 255.00,92.07 L 255.00,92.61 L 254.91,93.43 L 254.84,93.80 L 254.61,94.32 L 254.47,94.55 L 254.07,94.80 L 253.25,94.92 L 253.13,94.92 L 252.57,94.81 L 252.24,94.74 L 251.29,94.52 L 250.77,94.40 L 249.49,94.08 L 248.81,93.90 L 247.24,93.49 L 245.61,93.06 L 241.70,91.99 L 239.67,91.43 L 235.25,90.17 L 219.00,85.50 L 219.00,82.18 L 219.00,81.51 L 219.07,80.55 L 219.13,80.13 L 219.34,79.62 L 219.47,79.41 L 219.88,79.26 M 249.36,79.13 L 250.34,79.18 L 251.91,79.32 L 253.42,79.61 L 253.61,79.68 L 253.97,80.06 L 254.13,80.28 L 254.42,80.87 L 254.69,81.50 L 254.99,83.05 L 255.09,83.81 L 254.98,85.09 L 254.92,85.36 L 254.71,85.72 L 254.25,85.92 L 254.15,85.91 L 253.24,85.68 L 252.68,85.54 L 251.03,85.08 L 250.13,84.83 L 247.95,84.22 L 246.82,83.89 L 244.33,83.17 L 243.07,82.81 L 240.71,82.08 L 239.58,81.72 L 237.64,81.06 L 236.74,80.75 L 235.43,80.25 L 234.42,79.75 L 234.36,79.69 L 234.46,79.59 L 234.54,79.54 L 234.88,79.45 L 235.28,79.37 L 236.69,79.23 L 237.47,79.17 L 239.43,79.08 L 240.46,79.05 L 242.72,79.01 L 245.01,79.00 M 839.00,22.50 L 836.73,24.77 L 832.58,28.91 L 831.59,29.89 L 829.76,31.71 L 828.87,32.59 L 827.29,34.15 L 826.53,34.90 L 825.23,36.17 L 824.62,36.77 L 823.66,37.70 L 823.23,38.12 L 822.65,38.66 L 822.26,39.00 L 822.24,39.00 L 822.21,38.66 L 822.19,38.44 L 822.16,37.70 L 822.14,37.28 L 822.12,36.17 L 822.10,35.58 L 822.08,34.15 L 822.05,32.66 L 822.02,28.91 L 822.01,26.93 L 822.00,22.50 L 822.00,6.00 L 855.48,6.00 M 800.36,114.02 L 794.23,114.04 L 791.36,114.07 L 785.77,114.11 L 783.21,114.14 L 778.27,114.20 L 776.10,114.24 L 771.96,114.32 L 770.23,114.36 L 767.01,114.45 L 765.79,114.50 L 764.64,114.55 L 764.17,114.58 L 763.30,114.63 L 762.98,114.66 L 762.41,114.71 L 762.25,114.74 L 762.00,114.80 L 762.21,114.74 L 762.35,114.71 L 762.83,114.66 L 763.38,114.61 L 765.22,114.50 L 766.25,114.45 L 768.98,114.36 L 770.45,114.32 L 773.97,114.24 L 775.82,114.20 L 780.01,114.14 L 782.18,114.11 L 786.93,114.07 L 789.37,114.04 L 794.57,114.02 L 802.75,114.00 L 810.00,114.00 Z" fill="rgba(176,238,6,1)"/>
<path d="M 648.56,130.00 L 650.74,132.20 L 654.78,136.20 L 655.75,137.15 L 657.55,138.90 L 658.43,139.74 L 660.01,141.24 L 660.77,141.95 L 662.08,143.15 L 662.70,143.72 L 663.70,144.59 L 664.15,144.97 L 664.79,145.47 L 665.30,145.73 L 665.36,145.71 L 665.47,145.35 L 665.53,145.12 L 665.63,144.38 L 665.68,143.96 L 665.77,142.87 L 665.82,142.29 L 665.89,140.91 L 665.96,139.45 L 666.04,135.84 L 666.05,129.72 L 665.91,114.00 L 713.00,114.00 L 713.00,243.00 L 689.75,242.98 L 666.50,242.95 L 651.09,227.48 L 648.97,225.35 L 645.00,221.47 L 644.04,220.54 L 642.25,218.84 L 641.38,218.02 L 639.80,216.55 L 639.04,215.85 L 637.71,214.65 L 637.08,214.09 L 636.05,213.22 L 635.58,212.83 L 634.89,212.32 L 634.30,212.00 L 634.01,212.00 L 633.61,212.64 L 633.52,212.87 L 633.38,213.55 L 633.31,213.94 L 633.21,214.97 L 633.16,215.54 L 633.10,216.97 L 633.07,217.75 L 633.04,219.63 L 633.03,220.64 L 633.03,223.03 L 633.06,227.25 L 633.20,242.50 L 610.10,242.77 L 606.92,242.81 L 601.13,242.85 L 599.75,242.86 L 597.21,242.87 L 595.98,242.88 L 593.78,242.88 L 592.74,242.88 L 590.95,242.87 L 590.12,242.87 L 588.82,242.85 L 588.23,242.84 L 587.46,242.82 L 587.15,242.80 L 586.99,242.77 L 586.99,242.76 L 586.99,242.41 L 586.99,242.18 L 586.99,241.41 L 586.99,240.97 L 586.99,239.80 L 586.98,239.16 L 586.98,237.61 L 586.98,236.79 L 586.98,234.89 L 586.98,233.89 L 586.98,231.65 L 586.98,230.49 L 586.97,227.94 L 586.97,226.62 L 586.97,223.78 L 586.97,220.87 L 586.96,214.26 L 586.96,210.85 L 586.95,203.37 L 586.95,199.54 L 586.94,191.36 L 586.94,178.50 L 586.89,114.50 L 609.81,114.23 L 632.72,113.96 Z" fill="rgba(196,229,98,1)"/>
<path d="M 123.00,194.96 L 125.25,195.49 L 125.40,195.52 L 125.97,195.60 L 126.30,195.64 L 127.17,195.71 L 128.12,195.79 L 130.75,195.93 L 132.16,196.00 L 135.46,196.12 L 140.80,196.26 L 154.11,196.50 L 154.14,219.50 L 154.16,242.50 L 106.08,242.76 L 102.13,242.78 L 94.93,242.80 L 91.45,242.81 L 85.22,242.81 L 82.22,242.80 L 76.96,242.77 L 74.45,242.76 L 70.17,242.70 L 68.16,242.67 L 64.87,242.59 L 63.35,242.54 L 61.06,242.44 L 60.04,242.38 L 58.77,242.24 L 58.26,242.18 L 58.00,242.02 L 58.00,241.95 L 57.68,241.50 L 57.48,241.23 L 56.78,240.41 L 56.38,239.96 L 55.34,238.81 L 54.78,238.20 L 53.45,236.77 L 52.74,236.03 L 51.15,234.37 L 50.33,233.51 L 48.52,231.65 L 42.50,225.58 L 27.00,210.14 L 27.00,114.00 L 123.00,114.00 Z" fill="rgba(253,245,36,1)"/>
<path d="M 537.50,114.22 L 569.28,147.50 L 569.16,193.75 L 569.15,196.93 L 569.14,203.07 L 569.13,206.09 L 569.11,211.83 L 569.11,214.63 L 569.09,219.82 L 569.08,222.34 L 569.07,226.85 L 569.06,229.02 L 569.05,232.74 L 569.05,234.48 L 569.04,237.27 L 569.04,237.90 L 569.03,238.97 L 569.03,239.47 L 569.03,240.25 L 569.03,240.61 L 569.02,241.11 L 569.02,241.50 L 569.02,241.66 L 568.83,241.94 L 568.69,242.06 L 568.15,242.28 L 567.82,242.38 L 566.82,242.54 L 566.25,242.62 L 564.67,242.73 L 563.79,242.79 L 561.53,242.87 L 560.30,242.90 L 557.23,242.95 L 555.59,242.97 L 551.61,242.99 L 550.56,242.99 L 548.25,243.00 L 544.50,243.00 L 542.43,243.00 L 538.68,242.98 L 536.88,242.97 L 533.67,242.94 L 532.13,242.91 L 529.46,242.85 L 528.18,242.82 L 526.03,242.74 L 525.01,242.70 L 523.38,242.59 L 522.62,242.54 L 521.49,242.41 L 520.99,242.34 L 520.37,242.19 L 520.12,242.11 L 520.00,241.94 L 520.00,241.87 L 519.69,241.42 L 519.49,241.14 L 518.82,240.33 L 518.44,239.88 L 517.43,238.74 L 516.89,238.14 L 515.60,236.73 L 514.92,235.99 L 513.38,234.35 L 512.58,233.50 L 510.84,231.67 L 505.02,225.69 L 490.04,210.50 L 490.00,114.00 M 847.30,114.03 L 845.80,114.09 L 845.19,114.14 L 844.07,114.26 L 843.65,114.36 L 842.89,114.56 L 842.63,114.70 L 842.20,115.00 L 842.09,115.19 L 841.95,115.61 L 841.98,115.86 L 842.11,116.41 L 842.26,116.74 L 842.62,117.43 L 842.88,117.84 L 843.62,118.43 L 844.44,118.70 L 845.02,118.78 L 846.31,118.91 L 847.15,118.92 L 848.98,118.90 L 850.11,118.84 L 852.09,118.74 L 853.17,118.71 L 853.61,118.70 L 855.07,118.74 L 855.47,118.85 L 856.08,119.14 L 856.16,119.41 L 856.19,120.04 L 856.10,120.50 L 856.01,121.12 L 855.94,121.74 L 855.91,122.13 L 855.77,123.94 L 855.69,125.10 L 855.55,127.58 L 855.48,128.98 L 855.34,131.86 L 855.28,133.35 L 855.21,135.42 L 855.19,136.30 L 855.15,137.98 L 855.14,138.68 L 855.14,140.01 L 855.15,140.55 L 855.18,141.55 L 855.22,141.94 L 855.40,143.23 L 855.56,143.51 L 855.92,143.86 L 856.19,143.77 L 856.82,142.83 L 856.99,142.19 L 857.07,141.76 L 857.21,140.82 L 857.27,140.24 L 857.39,138.97 L 857.44,138.21 L 857.54,136.59 L 857.58,135.64 L 857.66,133.63 L 857.69,132.47 L 857.75,130.05 L 857.78,128.67 L 858.00,116.83 L 858.00,210.57 L 825.57,243.00 L 731.00,243.00 L 731.00,146.42 L 746.50,131.03 L 748.63,128.92 L 752.52,124.99 L 753.44,124.05 L 755.15,122.30 L 755.98,121.46 L 757.45,119.93 L 758.15,119.19 L 759.34,117.92 L 759.90,117.32 L 760.78,116.36 L 761.17,115.92 L 761.68,115.30 L 762.00,114.82 L 762.00,114.80 L 762.25,114.74 L 762.41,114.71 L 762.98,114.66 L 763.30,114.63 L 764.17,114.58 L 764.64,114.55 L 765.79,114.50 L 767.01,114.45 L 770.23,114.36 L 771.96,114.32 L 776.10,114.24 L 778.27,114.20 L 783.21,114.14 L 785.77,114.11 L 791.36,114.07 L 794.23,114.04 L 800.36,114.02 L 810.00,114.00 L 850.03,114.00 M 794.20,148.00 L 793.44,148.36 L 792.67,148.91 L 792.19,149.32 L 791.18,150.21 L 790.62,150.75 L 789.47,151.88 L 788.89,152.50 L 787.51,153.96 L 786.72,154.75 L 786.37,155.07 L 785.07,156.12 L 784.39,156.41 L 782.99,156.84 L 782.03,156.92 L 781.02,156.98 L 780.41,156.99 L 779.11,157.00 L 772.00,157.00 L 772.00,162.89 L 771.98,164.77 L 771.94,165.83 L 771.90,166.29 L 771.64,167.96 L 771.33,168.68 L 770.59,170.11 L 769.94,170.94 L 769.25,171.80 L 768.82,172.30 L 767.90,173.34 L 767.35,173.96 L 762.70,179.13 L 767.35,183.85 L 768.85,185.39 L 769.66,186.26 L 769.99,186.64 L 771.07,188.07 L 771.37,188.77 L 771.83,190.21 L 771.91,191.16 L 771.97,192.16 L 771.99,192.75 L 772.00,194.01 L 772.00,194.77 L 772.01,196.69 L 772.04,197.76 L 772.06,198.19 L 772.21,199.67 L 772.38,200.13 L 772.78,200.87 L 773.13,201.09 L 773.92,201.44 L 774.51,201.59 L 775.76,201.78 L 776.78,201.84 L 777.33,201.84 L 779.60,201.73 L 780.59,201.55 L 782.66,201.31 L 783.80,201.44 L 784.38,201.71 L 785.57,202.40 L 786.33,203.02 L 787.12,203.68 L 787.58,204.10 L 788.54,204.98 L 789.11,205.51 L 794.06,210.13 L 799.16,205.55 L 800.81,204.08 L 801.74,203.28 L 802.14,202.97 L 803.58,201.93 L 804.22,201.68 L 805.50,201.33 L 806.27,201.34 L 807.94,201.45 L 809.12,201.61 L 811.38,201.84 L 812.64,201.87 L 813.17,201.82 L 814.15,201.66 L 814.55,201.50 L 815.28,201.13 L 815.56,200.84 L 816.08,200.21 L 816.27,199.79 L 816.60,198.87 L 816.71,198.29 L 816.89,197.05 L 816.94,196.30 L 817.00,194.71 L 817.00,193.77 L 817.02,191.83 L 817.05,190.76 L 817.09,190.30 L 817.33,188.66 L 817.63,187.98 L 818.36,186.67 L 819.00,185.93 L 819.69,185.17 L 820.11,184.73 L 821.03,183.81 L 821.58,183.26 L 826.17,178.74 L 821.58,174.09 L 820.11,172.57 L 819.31,171.71 L 818.99,171.33 L 817.92,169.92 L 817.62,169.22 L 817.17,167.78 L 817.09,166.83 L 817.03,165.83 L 817.01,165.23 L 817.00,163.97 L 817.00,157.00 L 810.96,157.00 L 809.02,156.98 L 807.93,156.95 L 807.47,156.90 L 805.80,156.66 L 805.09,156.36 L 803.71,155.64 L 802.93,155.02 L 802.12,154.35 L 801.65,153.93 L 800.68,153.04 L 800.10,152.50 L 798.15,150.75 L 796.92,149.73 L 796.39,149.32 L 795.38,148.58 L 795.00,148.36 L 794.35,148.00 Z" fill="rgba(253,67,60,1)"/>
<path d="M 449.00,113.94 L 452.01,113.95 L 457.83,114.06 L 459.24,114.09 L 461.89,114.18 L 463.19,114.22 L 465.54,114.33 L 466.67,114.38 L 468.62,114.51 L 469.54,114.57 L 471.01,114.72 L 471.67,114.80 L 472.56,114.97 L 473.12,115.25 L 473.13,115.29 L 473.13,115.71 L 473.14,115.96 L 473.15,116.79 L 473.15,117.26 L 473.17,118.48 L 473.17,119.14 L 473.18,120.73 L 473.19,121.57 L 473.20,123.51 L 473.21,124.52 L 473.22,126.79 L 473.22,127.96 L 473.24,130.54 L 473.24,131.86 L 473.26,134.72 L 473.27,137.64 L 473.30,144.24 L 473.31,147.66 L 473.34,155.10 L 473.35,158.92 L 473.38,167.03 L 473.41,179.77 L 473.58,243.04 L 450.04,242.77 L 426.50,242.50 L 426.42,227.50 L 426.41,225.98 L 426.38,223.37 L 426.37,222.13 L 426.32,220.03 L 426.29,219.04 L 426.22,217.40 L 426.18,216.63 L 426.08,215.40 L 426.02,214.84 L 425.88,213.97 L 425.81,213.57 L 425.63,213.01 L 424.92,212.25 L 424.82,212.23 L 424.33,212.51 L 424.04,212.69 L 423.19,213.34 L 422.72,213.71 L 421.56,214.69 L 420.95,215.21 L 419.52,216.49 L 418.78,217.16 L 417.13,218.68 L 416.28,219.47 L 414.45,221.21 L 408.53,227.02 L 393.56,242.04 L 378.52,227.02 L 376.45,224.95 L 372.58,221.19 L 371.65,220.29 L 369.90,218.64 L 369.06,217.84 L 367.52,216.41 L 366.78,215.73 L 365.49,214.57 L 364.88,214.03 L 363.88,213.19 L 363.42,212.80 L 362.76,212.31 L 362.19,212.00 L 362.07,212.00 L 361.85,212.17 L 361.75,212.29 L 361.58,212.72 L 361.50,212.97 L 361.37,213.71 L 361.30,214.12 L 361.21,215.19 L 361.17,215.78 L 361.10,217.23 L 361.08,218.01 L 361.05,219.88 L 361.03,220.87 L 361.03,223.20 L 361.06,227.25 L 361.20,242.50 L 338.28,242.77 L 335.13,242.80 L 329.35,242.84 L 327.97,242.84 L 325.42,242.84 L 324.19,242.84 L 321.97,242.83 L 320.91,242.82 L 319.10,242.80 L 318.26,242.78 L 316.91,242.75 L 316.30,242.73 L 315.49,242.68 L 315.15,242.66 L 314.93,242.60 L 314.92,242.59 L 314.89,242.22 L 314.88,241.99 L 314.85,241.21 L 314.84,240.76 L 314.82,239.58 L 314.81,238.94 L 314.79,237.38 L 314.78,236.55 L 314.76,234.63 L 314.75,233.63 L 314.74,231.38 L 314.73,230.21 L 314.72,227.64 L 314.71,226.33 L 314.71,223.47 L 314.70,220.55 L 314.69,213.92 L 314.69,210.50 L 314.70,203.00 L 314.70,199.16 L 314.72,190.97 L 314.76,178.08 L 315.03,114.00 L 340.60,114.00 L 344.32,114.02 L 346.10,114.03 L 349.22,114.06 L 350.72,114.08 L 353.28,114.14 L 354.49,114.18 L 356.52,114.26 L 357.46,114.31 L 358.97,114.42 L 359.66,114.47 L 360.68,114.61 L 361.13,114.68 L 361.68,114.84 L 362.00,115.12 L 362.00,115.22 L 362.33,115.72 L 362.55,116.02 L 363.28,116.89 L 363.69,117.36 L 364.75,118.54 L 365.32,119.16 L 366.67,120.59 L 368.08,122.08 L 371.49,125.57 L 373.26,127.36 L 377.06,131.14 L 378.97,133.02 L 382.71,136.63 L 384.53,138.38 L 387.75,141.39 L 388.50,142.08 L 389.83,143.28 L 390.46,143.84 L 391.50,144.74 L 391.98,145.14 L 392.68,145.67 L 393.29,146.00 L 393.38,146.00 L 393.89,145.67 L 394.19,145.45 L 395.07,144.73 L 395.56,144.32 L 396.76,143.26 L 397.40,142.69 L 398.86,141.35 L 399.62,140.65 L 401.29,139.09 L 402.15,138.29 L 403.97,136.56 L 405.81,134.80 L 409.69,131.02 L 411.63,129.13 L 415.35,125.41 L 416.25,124.51 L 417.94,122.80 L 418.76,121.96 L 420.25,120.42 L 420.97,119.68 L 422.20,118.36 L 422.78,117.74 L 423.70,116.71 L 424.11,116.24 L 424.66,115.55 L 425.00,114.97 L 425.00,114.87 L 425.54,114.70 L 425.89,114.61 L 427.06,114.47 L 427.72,114.40 L 429.43,114.28 L 430.34,114.22 L 432.50,114.13 L 433.62,114.09 L 436.13,114.03 L 437.42,114.00 L 440.19,113.96 L 443.00,113.92 M 857.78,128.67 L 857.75,130.05 L 857.69,132.47 L 857.66,133.63 L 857.58,135.64 L 857.54,136.59 L 857.44,138.21 L 857.39,138.97 L 857.27,140.24 L 857.21,140.82 L 857.07,141.76 L 856.99,142.19 L 856.82,142.83 L 856.19,143.77 L 855.92,143.86 L 855.56,143.51 L 855.40,143.23 L 855.22,141.94 L 855.18,141.55 L 855.15,140.55 L 855.14,140.01 L 855.14,138.68 L 855.15,137.98 L 855.19,136.30 L 855.21,135.42 L 855.28,133.35 L 855.34,131.86 L 855.48,128.98 L 855.55,127.58 L 855.69,125.10 L 855.77,123.94 L 855.91,122.13 L 855.94,121.74 L 856.01,121.12 L 856.10,120.50 L 856.19,120.04 L 856.16,119.41 L 856.08,119.14 L 855.47,118.85 L 855.07,118.74 L 853.61,118.70 L 853.17,118.71 L 852.09,118.74 L 850.11,118.84 L 848.98,118.90 L 847.15,118.92 L 846.31,118.91 L 845.02,118.78 L 844.44,118.70 L 843.62,118.43 L 842.88,117.84 L 842.62,117.43 L 842.26,116.74 L 842.11,116.41 L 841.98,115.86 L 841.95,115.61 L 842.09,115.19 L 842.20,115.00 L 842.63,114.70 L 842.89,114.56 L 843.65,114.36 L 844.07,114.26 L 845.19,114.14 L 845.80,114.09 L 847.30,114.03 L 850.03,114.00 L 858.05,114.00 Z" fill="rgba(254,160,1,1)"/>
<path d="M 789.11,205.51 L 788.54,204.98 L 787.58,204.10 L 787.12,203.68 L 786.33,203.02 L 785.57,202.40 L 784.38,201.71 L 783.80,201.44 L 782.66,201.31 L 780.59,201.55 L 779.60,201.73 L 777.33,201.84 L 776.78,201.84 L 775.76,201.78 L 774.51,201.59 L 773.92,201.44 L 773.13,201.09 L 772.78,200.87 L 772.38,200.13 L 772.21,199.67 L 772.06,198.19 L 772.04,197.76 L 772.01,196.69 L 772.00,194.77 L 772.00,194.01 L 771.99,192.75 L 771.97,192.16 L 771.91,191.16 L 771.83,190.21 L 771.37,188.77 L 771.07,188.07 L 769.99,186.64 L 769.66,186.26 L 768.85,185.39 L 767.35,183.85 L 762.70,179.13 L 767.35,173.96 L 767.90,173.34 L 768.82,172.30 L 769.25,171.80 L 769.94,170.94 L 770.59,170.11 L 771.33,168.68 L 771.64,167.96 L 771.90,166.29 L 771.94,165.83 L 771.98,164.77 L 772.00,162.89 L 772.00,157.00 L 778.34,157.00 L 779.11,157.00 L 780.41,156.99 L 781.02,156.98 L 782.03,156.92 L 782.99,156.84 L 784.39,156.41 L 785.07,156.12 L 786.37,155.07 L 786.72,154.75 L 787.51,153.96 L 788.89,152.50 L 789.47,151.88 L 790.62,150.75 L 791.18,150.21 L 792.19,149.32 L 792.67,148.91 L 793.44,148.36 L 794.20,148.00 L 794.35,148.00 L 795.00,148.36 L 795.38,148.58 L 796.39,149.32 L 796.92,149.73 L 798.15,150.75 L 800.10,152.50 L 800.68,153.04 L 801.65,153.93 L 802.12,154.35 L 802.93,155.02 L 803.71,155.64 L 805.09,156.36 L 805.80,156.66 L 807.47,156.90 L 807.93,156.95 L 809.02,156.98 L 810.96,157.00 L 817.00,157.00 L 817.00,163.22 L 817.00,163.97 L 817.01,165.23 L 817.03,165.83 L 817.09,166.83 L 817.17,167.78 L 817.62,169.22 L 817.92,169.92 L 818.99,171.33 L 819.31,171.71 L 820.11,172.57 L 821.58,174.09 L 826.17,178.74 L 821.58,183.26 L 821.03,183.81 L 820.11,184.73 L 819.69,185.17 L 819.00,185.93 L 818.36,186.67 L 817.63,187.98 L 817.33,188.66 L 817.09,190.30 L 817.05,190.76 L 817.02,191.83 L 817.00,193.77 L 817.00,194.71 L 816.94,196.30 L 816.89,197.05 L 816.71,198.29 L 816.60,198.87 L 816.27,199.79 L 816.08,200.21 L 815.56,200.85 L 815.28,201.13 L 814.55,201.50 L 814.15,201.66 L 813.17,201.82 L 812.64,201.87 L 811.38,201.84 L 809.12,201.61 L 807.94,201.45 L 806.27,201.34 L 805.50,201.33 L 804.22,201.68 L 803.58,201.93 L 802.14,202.97 L 801.74,203.28 L 800.81,204.08 L 799.16,205.55 L 794.06,210.13 L 789.11,205.51 Z" fill="rgba(254,254,254,1)"/>
</g>
</svg>